# Blender 3.3.1
# www.blender.org
o Cube
v 1.000000 1.000000 -1.000000
v 1.000000 -1.000000 -1.000000
v 1.009716 1.009716 1.009716
v 1.000000 -1.000000 1.000000
v -1.000000 1.000000 -1.000000
v -1.000000 -1.000000 -1.000000
v -1.000000 1.000000 1.000000
v -1.000000 -1.000000 1.000000
vn -0.0048 1.0000 -0.0048
vn -0.0000 -0.0000 1.0000
vn -1.0000 -0.0000 -0.0000
vn -0.0000 -1.0000 -0.0000
vn 1.0000 -0.0000 -0.0000
vn -0.0000 -0.0000 -1.0000
vn -0.0000 1.0000 -0.0000
vn -0.0048 -0.0048 1.0000
vn 1.0000 -0.0048 -0.0048
vt 0.334212 0.336231
vt 0.336231 0.334213
vt 0.334612 0.667006
vt 0.668625 0.334213
vt 0.667006 0.667406
vt 0.334612 0.334612
vt 0.000200 0.334612
vt 0.000200 0.000200
vt 0.334612 0.000200
vt 0.001819 0.334213
vt 0.667006 0.999800
vt 0.668625 0.001819
vt 0.334213 0.668625
vt 0.999800 0.667006
vt 0.667006 0.667006
vt 0.334612 0.667406
vt 0.667006 0.334612
vt 0.667406 0.667006
vt 0.001819 0.668625
vt 0.334212 0.001819
vt 0.999800 0.334612
vt 0.334212 0.334213
vt 0.667406 0.334612
vt 0.334612 0.999800
s 0
f 1/1/1 7/19/1 3/7/1
f 4/10/2 7/20/2 8/22/2
f 7/21/3 6/18/3 8/23/3
f 2/5/4 8/24/4 6/16/4
f 1/2/5 4/12/5 2/4/5
f 5/15/6 2/6/6 6/17/6
f 1/1/7 5/13/7 7/19/7
f 4/10/8 3/8/8 7/20/8
f 7/21/3 5/14/3 6/18/3
f 2/5/4 4/11/4 8/24/4
f 1/2/9 3/9/9 4/12/9
f 5/15/6 1/3/6 2/6/6
